<svg width="191" height="70" viewBox="0 0 191 70" fill="none" xmlns="http://www.w3.org/2000/svg">
<g clip-path="url(#clip0_46_4272)">
<path d="M93.609 35.7443H83.9723L82.3929 39.2303H78.6274L86.8948 20.7427H90.6864L98.9538 39.2303H95.1621L93.609 35.7443ZM88.792 24.6252L85.3693 32.4953H92.2147L88.792 24.6252Z" fill="white"/>
<path d="M104.799 20.7427V36.0077H114.278V39.2303H101.324V20.7427H104.799Z" fill="white"/>
<path d="M137.895 20.8481L129.706 29.6955L138.579 39.0183V39.2303H134.288L126.573 31.0427V39.2303H123.098V20.7427H126.573V28.5602L133.576 20.7427H137.895V20.8481Z" fill="white"/>
<path d="M142.436 28.3759H147.188V31.6249H142.436C141.542 31.6249 140.817 30.8972 140.817 30.0004C140.817 29.1036 141.542 28.3759 142.436 28.3759Z" fill="white"/>
<path d="M154.613 30.0004C154.613 30.4495 154.432 30.8542 154.139 31.1495C153.846 31.4433 153.441 31.6249 152.993 31.6249H148.241V28.3759H152.993C153.889 28.3759 154.613 29.1022 154.613 30.0004Z" fill="white"/>
<path d="M142.436 20.7427H147.188V24.1234H142.436C141.542 24.1234 140.817 23.3971 140.817 22.4989V22.3672C140.817 21.4704 141.542 20.7427 142.436 20.7427Z" fill="white"/>
<path d="M154.613 22.3672V22.4989C154.613 23.3971 153.889 24.1234 152.993 24.1234H148.241V20.7427H152.993C153.889 20.7427 154.613 21.4704 154.613 22.3672Z" fill="white"/>
<path d="M142.436 35.797H147.188V39.2289H142.436C141.542 39.2289 140.817 38.5026 140.817 37.6058V37.4215C140.817 36.5247 141.542 35.797 142.436 35.797Z" fill="white"/>
<path d="M154.613 37.4215V37.6058C154.613 38.5026 153.889 39.2289 152.993 39.2289H148.241V35.797H152.993C153.889 35.797 154.613 36.5247 154.613 37.4215Z" fill="white"/>
<path d="M170.49 20.7164H173.965V39.2303H171.807V39.2567L162.118 26.7639V39.2303H158.642V20.7427H161.458L170.49 32.2043V20.7164Z" fill="white"/>
<path d="M176.835 20.7427H191V22.3797L181.442 35.9287H191V39.2303H176.597V37.2219L185.945 24.0181H176.835V20.7427Z" fill="white"/>
<path d="M96.1295 47.9793H94.9674V49.1921H94.1936V45.0727C94.8389 45.0727 95.4842 45.0671 96.1295 45.0671C98.1359 45.0671 98.1414 47.9807 96.1295 47.9807V47.9793ZM94.9674 47.2682H96.1295C97.1203 47.2682 97.1147 45.8087 96.1295 45.8087H94.9674V47.2682Z" fill="white"/>
<path d="M102.599 49.1977V47.533H100.582V49.1977H99.8064V45.0782H100.582V46.815H102.599V45.0782H103.367V49.1977H102.599Z" fill="white"/>
<path d="M108.654 48.4159H106.507L106.154 49.1921H105.316L107.158 45.0727H108.002L109.844 49.1921H109L108.654 48.4159ZM107.58 45.9376L106.818 47.691H108.343L107.58 45.9376Z" fill="white"/>
<path d="M115.476 49.1921H114.554L113.358 47.8144H112.613V49.1921H111.839V45.0671C112.49 45.0671 113.142 45.0727 113.793 45.0727C114.76 45.0782 115.272 45.7255 115.272 46.438C115.272 47.0035 115.013 47.5732 114.234 47.7326L115.477 49.1394V49.1921H115.476ZM112.613 45.7962V47.1144H113.792C114.285 47.1144 114.495 46.7845 114.495 46.456C114.495 46.1275 114.278 45.7962 113.792 45.7962H112.613Z" fill="white"/>
<path d="M121.014 46.2079L119.677 47.9973H119.523L118.216 46.2023V49.1977H117.441V45.0782H118.332L119.617 46.8496L120.902 45.0782H121.788V49.1977H121.014V46.2079Z" fill="white"/>
<path d="M127.074 48.4159H124.926L124.574 49.1921H123.735L125.577 45.0727H126.421L128.263 49.1921H127.419L127.074 48.4159ZM126 45.9376L125.237 47.691H126.763L126 45.9376Z" fill="white"/>
<path d="M133.633 48.6737C133.21 49.0909 132.666 49.2864 132.073 49.2864C130.547 49.2864 129.902 48.2329 129.897 47.1615C129.891 46.0845 130.589 44.9895 132.073 44.9895C132.63 44.9895 133.158 45.2016 133.58 45.6188L133.064 46.1192C132.794 45.8544 132.431 45.7311 132.073 45.7311C131.081 45.7311 130.654 46.4726 130.659 47.1615C130.665 47.8448 131.059 48.5559 132.073 48.5559C132.431 48.5559 132.836 48.409 133.105 48.1387L133.633 48.6737Z" fill="white"/>
<path d="M138.771 49.1921H135.696V45.0727H138.771V45.8253H136.464V46.772H138.688V47.4955H136.464V48.4256H138.771V49.1907V49.1921Z" fill="white"/>
<path d="M144.614 45.0782V47.4387C144.614 48.6571 143.869 49.2808 142.837 49.2808C141.805 49.2808 141.013 48.6806 141.013 47.4387V45.0782H141.781V47.4387C141.781 48.1803 142.204 48.5739 142.843 48.5739C143.481 48.5739 143.846 48.1442 143.846 47.4387V45.0782H144.614Z" fill="white"/>
<path d="M148.076 45.7782H146.774V45.0727H150.152V45.7782H148.851V49.1921H148.077V45.7782H148.076Z" fill="white"/>
<path d="M153.038 45.0727H152.269V49.1921H153.038V45.0727Z" fill="white"/>
<path d="M159.028 48.6737C158.605 49.0909 158.059 49.2864 157.468 49.2864C155.942 49.2864 155.297 48.2329 155.291 47.1615C155.286 46.0845 155.984 44.9895 157.468 44.9895C158.025 44.9895 158.552 45.2016 158.975 45.6188L158.458 46.1192C158.189 45.8544 157.824 45.7311 157.468 45.7311C156.475 45.7311 156.047 46.4726 156.054 47.1615C156.06 47.8448 156.453 48.5559 157.468 48.5559C157.826 48.5559 158.23 48.409 158.5 48.1387L159.028 48.6737Z" fill="white"/>
<path d="M163.838 48.4159H161.691L161.338 49.1921H160.5L162.341 45.0727H163.186L165.028 49.1921H164.183L163.838 48.4159ZM162.764 45.9376L162.002 47.691H163.527L162.764 45.9376Z" fill="white"/>
<path d="M167.856 45.0727V48.4741H169.967V49.1921H167.082V45.0727H167.856Z" fill="white"/>
<path d="M174.69 46.0665C174.549 45.8309 174.163 45.6077 173.716 45.6077C173.141 45.6077 172.865 45.8489 172.865 46.1552C172.865 46.5142 173.288 46.614 173.78 46.6736C174.637 46.7789 175.434 47.0035 175.434 47.9862C175.434 48.9038 174.624 49.2988 173.709 49.2988C172.871 49.2988 172.225 49.0396 171.92 48.287L172.565 47.9516C172.748 48.4048 173.222 48.6044 173.72 48.6044C174.219 48.6044 174.666 48.4339 174.666 47.9862C174.666 47.5981 174.261 47.4387 173.715 47.3805C172.876 47.2807 172.102 47.0575 172.102 46.133C172.102 45.2861 172.936 44.9382 173.693 44.9327C174.333 44.9327 174.994 45.1156 175.305 45.7505L174.689 46.0679L174.69 46.0665Z" fill="white"/>
<path d="M28.5094 41.3635H25.7776V43.1848H28.5094V41.3635ZM28.5094 36.8019H25.7776V38.6232H28.5094V36.8019Z" fill="white"/>
<path d="M25.7776 38.6232H23.9619V41.3635H25.7776V38.6232ZM30.3265 38.6232H28.5108V41.3635H30.3265V38.6232Z" fill="white"/>
<path d="M28.5094 38.6232H25.7776V41.3635H28.5094V38.6232Z" fill="white"/>
<path d="M30.9565 22.9827L28.2385 27.7092L17.7257 45.993H12.4583L22.971 27.7092L25.689 22.9827H30.9565Z" fill="white"/>
<path d="M37.6818 22.9827V27.7106H22.9697L25.6891 22.9827H37.6818Z" fill="white"/>
<path d="M37.6819 27.7106H32.97V45.993H37.6819V27.7106Z" fill="white"/>
<path d="M37.6819 22.9827H32.97V27.7106H37.6819V22.9827Z" fill="white"/>
<path d="M37.686 35.0069L37.6819 35.0111L41.0134 38.3529L41.0176 38.3488L37.686 35.0069ZM56.3349 22.9827H49.6718L41.0148 31.6665L44.3463 35.0083L56.3335 22.984" fill="white"/>
<path d="M44.3476 35.0069L41.0161 38.3488L49.6731 47.0312H56.3362L44.349 35.0069M41.0119 31.6609L37.6804 35.0028L37.6846 35.0069L41.0161 31.6651L41.0119 31.6609Z" fill="white"/>
<path d="M41.0162 31.6651L37.686 35.0069L41.0162 38.3488L44.3477 35.0069L41.0162 31.6651Z" fill="white"/>
<path d="M69.7687 35.0027C69.7742 39.4936 68.9037 43.9832 67.2151 48.1483C65.5293 52.3149 63.0255 56.1516 59.8874 59.3895C56.7466 62.6246 52.9743 65.2581 48.8206 67.0767C46.7437 67.9846 44.577 68.697 42.3537 69.1849C40.1318 69.6742 37.8587 69.9431 35.576 69.993C31.0119 70.0845 26.4063 69.2806 22.1199 67.5895C17.8336 65.9027 13.8747 63.3426 10.557 60.1005C7.2379 56.8599 4.56134 52.9414 2.75256 48.6418C1.85024 46.492 1.15519 44.2521 0.69643 41.9622C0.23767 39.6724 0.00690903 37.3369 0 35.0027C0.00414542 32.6685 0.23767 30.3344 0.693666 28.0432C1.14828 25.752 1.84747 23.5121 2.74703 21.3623C4.55443 17.0612 7.23099 13.1414 10.5501 9.90073C13.8678 6.6573 17.828 4.09582 22.1158 2.40895C26.4022 0.71793 31.0105 -0.0846127 35.5746 0.00686883C40.1414 0.101123 44.671 1.0991 48.8206 2.92458C52.9743 4.74312 56.748 7.37806 59.8874 10.6146C63.0255 13.8525 65.5293 17.6905 67.2138 21.8571C68.0622 23.939 68.6951 26.1041 69.1248 28.3079C69.5559 30.5118 69.7687 32.7573 69.7673 35.0027H69.7687ZM69.7687 35.0027C69.7618 32.7573 69.5393 30.5132 69.0999 28.3135C68.6605 26.1124 67.9903 23.9612 67.1239 21.8945C65.3856 17.764 62.8113 13.9966 59.6194 10.8849C56.4274 7.77032 52.6205 5.3128 48.5027 3.69662C44.385 2.07629 39.9618 1.30979 35.576 1.40127C33.3816 1.45117 31.1984 1.71175 29.0663 2.18302C26.9328 2.6529 24.8545 3.33901 22.862 4.21225C18.8768 5.9601 15.2565 8.49247 12.2428 11.5987C10.7366 13.1525 9.38798 14.8546 8.20516 16.6607C7.02372 18.4681 6.02882 20.3934 5.21355 22.3894C3.59407 26.3854 2.75946 30.6906 2.76223 35.0041C2.76085 37.1608 2.96535 39.3162 3.37851 41.43C3.78891 43.5451 4.3969 45.6229 5.20941 47.6202C6.82474 51.6191 9.22493 55.3033 12.2373 58.4151C15.2496 61.524 18.8713 64.0564 22.8578 65.8043C26.8402 67.5604 31.186 68.521 35.576 68.6152C39.9632 68.7053 44.3863 67.9388 48.5055 66.3171C52.6233 64.6996 56.4315 62.2407 59.6221 59.1261C62.8141 56.013 65.3884 52.2456 67.1267 48.1151C67.9931 46.0484 68.6633 43.8972 69.1027 41.6961C69.5421 39.495 69.7646 37.2509 69.7715 35.0069L69.7687 35.0027Z" fill="white"/>
<path d="M6.15872 35.0028C6.15596 33.072 6.33974 31.1384 6.71006 29.2436C7.079 27.3474 7.62205 25.4832 8.35027 23.6909C9.79701 20.1038 11.9457 16.798 14.6416 14.0036C17.3389 11.212 20.5834 8.93332 24.1595 7.35457C27.7328 5.77027 31.6351 4.89427 35.576 4.80001C39.5155 4.70853 43.4965 5.38771 47.2066 6.83756C50.9168 8.28324 54.3464 10.4885 57.2247 13.287C60.103 16.0841 62.4258 19.4731 63.9969 23.1933C64.779 25.0549 65.3843 26.994 65.7822 28.9761C66.1788 30.9596 66.3792 32.9805 66.3861 35.0014C66.3819 37.0223 66.1802 39.0446 65.7836 41.0281C65.3898 43.0116 64.7818 44.9507 64.0011 46.8122C62.4327 50.5338 60.1099 53.9242 57.2302 56.7227C54.3533 59.5226 50.9209 61.7292 47.2108 63.1749C43.5006 64.6262 39.5169 65.304 35.5774 65.2111C31.6351 65.1168 27.7315 64.2408 24.1581 62.6538C20.582 61.075 17.3375 58.7935 14.6402 56.0019C11.9443 53.2062 9.79701 49.9004 8.35027 46.3132C7.62205 44.521 7.08039 42.6567 6.71006 40.7606C6.33974 38.8644 6.15734 36.9322 6.1601 35L6.15872 35.0028ZM6.15872 35.0028C6.16563 36.935 6.3577 38.8644 6.73632 40.7578C7.11493 42.6512 7.69391 44.5002 8.44146 46.2772C9.94072 49.8283 12.1613 53.0634 14.9111 55.7317C17.6609 58.4013 20.9385 60.5026 24.4787 61.8789C28.0189 63.2567 31.8161 63.8999 35.576 63.8084C39.3386 63.7127 43.0557 62.8741 46.4577 61.3592C49.8638 59.8511 52.9522 57.675 55.5223 55.0123C56.8074 53.6803 57.9557 52.2235 58.9644 50.678C59.9717 49.1311 60.8174 47.4845 61.5125 45.7796C62.8901 42.3643 63.6017 38.6884 63.599 35.0042C63.6017 33.1621 63.4276 31.3213 63.0753 29.5153C62.7257 27.7092 62.2089 25.9336 61.5166 24.2274C60.1417 20.8093 58.0966 17.6573 55.5292 14.9905C52.9605 12.3264 49.8694 10.1503 46.4632 8.64085C43.0598 7.12448 39.34 6.28728 35.5774 6.19164C31.8161 6.10016 28.0189 6.7433 24.4787 8.12384C20.9385 9.50022 17.6609 11.6029 14.9125 14.2739C12.1613 16.9435 9.9421 20.1786 8.44423 23.7298C7.69805 25.5053 7.11769 27.3558 6.74046 29.2491C6.36185 31.1425 6.16978 33.072 6.16287 35.0042L6.15872 35.0028Z" fill="white"/>
</g>
<defs>
<clipPath id="clip0_46_4272">
<rect width="191" height="70" fill="white"/>
</clipPath>
</defs>
</svg>
