<svg width="191" height="70" viewBox="0 0 191 70" fill="none" xmlns="http://www.w3.org/2000/svg">
<path d="M93.6113 35.709H83.9747L82.3953 39.1911H78.6299L86.8971 20.7239H90.6888L98.9561 39.1911H95.1644L93.6113 35.709ZM88.793 24.6035L85.3703 32.465H92.2157L88.793 24.6035Z" fill="#0095DA"/>
<path d="M104.801 20.7253V35.9734H114.279V39.1925H101.326V20.7253H104.801Z" fill="#0095DA"/>
<path d="M137.895 20.8305L129.706 29.6682L138.579 38.9807V39.1911H134.287L126.573 31.0126V39.1911H123.097V20.7239H126.573V28.5328L133.575 20.7239H137.894V20.8292L137.895 20.8305Z" fill="#0095DA"/>
<path d="M142.437 28.3501H147.189V31.5955H142.437C141.543 31.5955 140.818 30.8686 140.818 29.9728C140.818 29.077 141.543 28.3501 142.437 28.3501Z" fill="#0095DA"/>
<path d="M154.613 29.9728C154.613 30.4214 154.432 30.8257 154.139 31.1206C153.846 31.4141 153.442 31.5955 152.994 31.5955H148.242V28.3501H152.994C153.889 28.3501 154.613 29.0756 154.613 29.9728Z" fill="#1FAA4A"/>
<path d="M142.437 20.7253H147.189V24.1023H142.437C141.543 24.1023 140.818 23.3768 140.818 22.4796V22.348C140.818 21.4522 141.543 20.7253 142.437 20.7253Z" fill="#0095DA"/>
<path d="M154.613 22.348V22.4796C154.613 23.3768 153.889 24.1023 152.994 24.1023H148.242V20.7253H152.994C153.889 20.7253 154.613 21.4522 154.613 22.348Z" fill="#1FAA4A"/>
<path d="M142.437 35.763H147.189V39.1912H142.437C141.543 39.1912 140.818 38.4657 140.818 37.5698V37.3857C140.818 36.4899 141.543 35.763 142.437 35.763Z" fill="#0095DA"/>
<path d="M154.613 37.3857V37.5698C154.613 38.4657 153.889 39.1912 152.994 39.1912H148.242V35.763H152.994C153.889 35.763 154.613 36.4899 154.613 37.3857Z" fill="#1FAA4A"/>
<path d="M170.49 20.699H173.965V39.1925H171.807V39.2188L162.118 26.7412V39.1925H158.643V20.7253H161.46L170.49 32.1742V20.699Z" fill="#0095DA"/>
<path d="M176.835 20.7253H191V22.3605L181.442 35.8945H191V39.1925H176.599V37.1877L185.945 23.997H176.835V20.7253Z" fill="#0095DA"/>
<path d="M96.1302 47.9318H94.9681V49.1433H94.1943V45.0284C94.8396 45.0284 95.4849 45.0229 96.1302 45.0229C98.1366 45.0229 98.1421 47.9332 96.1302 47.9332V47.9318ZM94.9681 47.2202H96.1302C97.1224 47.2202 97.1154 45.7622 96.1302 45.7622H94.9681V47.2202Z" fill="#1FAA4A"/>
<path d="M102.601 49.1488V47.4846H100.584V49.1488H99.8101V45.0339H100.584V46.7688H102.601V45.0339H103.37V49.1488H102.601Z" fill="#1FAA4A"/>
<path d="M108.655 48.3666H106.508L106.155 49.1419H105.316L107.158 45.027H108.003L109.845 49.1419H109L108.655 48.3666ZM107.581 45.8924L106.818 47.6438H108.344L107.581 45.8924Z" fill="#1FAA4A"/>
<path d="M115.477 49.1433H114.555L113.358 47.7685H112.614V49.1433H111.84V45.0229C112.491 45.0229 113.143 45.0284 113.794 45.0284C114.762 45.034 115.272 45.6806 115.272 46.3922C115.272 46.9571 115.014 47.5262 114.234 47.6854L115.478 49.0907V49.1433H115.477ZM112.614 45.7512V47.0679H113.792C114.286 47.0679 114.496 46.7384 114.496 46.4102C114.496 46.0821 114.279 45.7512 113.792 45.7512H112.614Z" fill="#1FAA4A"/>
<path d="M121.015 46.1623L119.677 47.9498H119.525L118.217 46.1568V49.1488H117.443V45.0339H118.334L119.619 46.8034L120.904 45.0339H121.79V49.1488H121.016V46.1623H121.015Z" fill="#1FAA4A"/>
<path d="M127.074 48.3666H124.927L124.574 49.1419H123.736L125.578 45.027H126.422L128.264 49.1419H127.42L127.074 48.3666ZM126 45.8924L125.238 47.6438H126.763L126 45.8924Z" fill="#1FAA4A"/>
<path d="M133.633 48.6255C133.211 49.0422 132.665 49.2374 132.073 49.2374C130.548 49.2374 129.903 48.1852 129.897 47.1149C129.892 46.0391 130.589 44.9453 132.073 44.9453C132.63 44.9453 133.158 45.1572 133.581 45.5739L133.064 46.0737C132.795 45.8093 132.43 45.686 132.072 45.686C131.08 45.686 130.653 46.4268 130.658 47.1149C130.664 47.7975 131.058 48.5078 132.072 48.5078C132.43 48.5078 132.835 48.361 133.104 48.091L133.632 48.6255H133.633Z" fill="#1FAA4A"/>
<path d="M138.772 49.1433H135.698V45.0284H138.772V45.7802H136.466V46.7272H138.689V47.45H136.466V48.379H138.772V49.1433Z" fill="#1FAA4A"/>
<path d="M144.615 45.0339V47.3918C144.615 48.6089 143.87 49.2319 142.838 49.2319C141.805 49.2319 141.014 48.6324 141.014 47.3918V45.0339H141.782V47.3918C141.782 48.1326 142.205 48.5258 142.843 48.5258C143.482 48.5258 143.846 48.0966 143.846 47.3918V45.0339H144.615Z" fill="#1FAA4A"/>
<path d="M148.076 45.7331H146.773V45.0284H150.153V45.7331H148.85V49.1433H148.076V45.7331Z" fill="#1FAA4A"/>
<path d="M152.27 49.1433V45.0284H153.038V49.1433H152.27Z" fill="#1FAA4A"/>
<path d="M159.028 48.6255C158.605 49.0422 158.059 49.2374 157.468 49.2374C155.942 49.2374 155.297 48.1852 155.292 47.1149C155.286 46.0391 155.984 44.9453 157.468 44.9453C158.025 44.9453 158.553 45.1572 158.976 45.5739L158.459 46.0737C158.189 45.8093 157.824 45.686 157.467 45.686C156.474 45.686 156.048 46.4268 156.053 47.1149C156.059 47.7975 156.452 48.5078 157.467 48.5078C157.824 48.5078 158.229 48.361 158.499 48.091L159.027 48.6255H159.028Z" fill="#1FAA4A"/>
<path d="M163.838 48.3666H161.691L161.338 49.1419H160.5L162.342 45.027H163.186L165.028 49.1419H164.183L163.838 48.3666ZM162.764 45.8924L162.002 47.6438H163.527L162.764 45.8924Z" fill="#1FAA4A"/>
<path d="M167.856 45.0284V48.4261H169.968V49.1433H167.081V45.0284H167.855H167.856Z" fill="#1FAA4A"/>
<path d="M174.691 46.0211C174.55 45.7857 174.163 45.5628 173.716 45.5628C173.142 45.5628 172.865 45.8037 172.865 46.1097C172.865 46.4683 173.288 46.568 173.78 46.6275C174.637 46.7328 175.434 46.9571 175.434 47.9387C175.434 48.8553 174.624 49.2499 173.71 49.2499C172.871 49.2499 172.226 48.991 171.92 48.2392L172.565 47.9041C172.748 48.3569 173.222 48.5562 173.721 48.5562C174.219 48.5562 174.666 48.3859 174.666 47.9387C174.666 47.551 174.261 47.3918 173.715 47.3337C172.876 47.234 172.101 47.0097 172.101 46.0876C172.101 45.2416 172.934 44.8941 173.692 44.8885C174.331 44.8885 174.995 45.0713 175.306 45.7054L174.689 46.0225L174.691 46.0211Z" fill="#1FAA4A"/>
<g style="mix-blend-mode:multiply">
<path d="M28.5109 36.7668H25.7791V43.1441H28.5109V36.7668Z" fill="#0095DA"/>
</g>
<g style="mix-blend-mode:multiply">
<path d="M30.3279 38.5861H23.9634V41.3234H30.3279V38.5861Z" fill="#0095DA"/>
</g>
<path d="M30.958 22.9628L28.24 27.6842L17.7287 45.9478H12.46L22.9726 27.6842L25.6906 22.9628H30.958Z" fill="#1FAA4A"/>
<path d="M37.6832 22.9628V27.6842H22.9727L25.6906 22.9628H37.6832Z" fill="#1FAA4A"/>
<g style="mix-blend-mode:multiply">
<path d="M37.6818 22.9628H32.9713V45.9478H37.6818V22.9628Z" fill="#0095DA"/>
</g>
<g style="mix-blend-mode:multiply">
<path d="M56.3374 22.9628L41.0147 38.3161L37.6832 34.978L49.6744 22.9628H56.3374Z" fill="#0095DA"/>
</g>
<g style="mix-blend-mode:multiply">
<path d="M56.3374 46.9848L41.0147 31.6315L37.6832 34.9697L49.6744 46.9848H56.3374Z" fill="#0095DA"/>
</g>
<path d="M69.7698 34.9697C69.8058 59.4956 44.9169 76.4993 22.1201 67.5191C8.99033 62.5084 -0.146083 49.063 0.00176858 34.9697C-0.111538 15.5388 16.2033 -0.510913 35.5774 0.0124478C54.3615 0.26859 69.9163 16.1619 69.7712 34.9697H69.7698ZM69.7698 34.9697C69.8721 16.2962 54.1943 0.887486 35.576 1.40392C17.5105 1.70022 2.6631 16.868 2.76397 34.9697C2.62441 53.0215 17.5422 68.2848 35.576 68.5423C54.1943 69.056 69.8721 53.6431 69.7698 34.9697Z" fill="#1FAA4A"/>
<path d="M6.16043 34.9697C6.15767 33.041 6.34145 31.1109 6.71177 29.2169C7.0807 27.3228 7.62375 25.4606 8.35195 23.6703C9.79869 20.0871 11.9474 16.7849 14.6433 13.9937C17.3405 11.2052 20.585 8.92899 24.161 7.35198C27.7344 5.76944 31.6365 4.8944 35.5774 4.80025C39.5169 4.70887 43.4978 5.3873 47.208 6.83554C50.9181 8.27963 54.3477 10.4825 57.2259 13.2779C60.1042 16.0719 62.427 19.4571 63.9981 23.1733C64.7802 25.0327 65.3854 26.9697 65.7834 28.9496C66.18 30.9309 66.3803 32.9496 66.3872 34.9683C66.3831 36.987 66.1813 39.007 65.7848 40.9883C65.3909 42.9696 64.783 44.9066 64.0023 46.7661C62.4339 50.4836 60.1111 53.8702 57.2315 56.6656C54.3546 59.4624 50.9222 61.6666 47.2121 63.1107C43.502 64.5603 39.5183 65.2374 35.5788 65.146C31.6365 65.0519 27.733 64.1768 24.1597 62.5915C20.5836 61.0145 17.3391 58.7355 14.6419 55.947C11.946 53.1544 9.79869 49.8522 8.35195 46.269C7.62375 44.4788 7.08209 42.6166 6.71177 40.7225C6.34145 38.8284 6.15905 36.8984 6.16181 34.9683L6.16043 34.9697ZM6.16043 34.9697C6.16734 36.8997 6.35941 38.827 6.73802 40.7183C7.11663 42.6096 7.6956 44.458 8.44315 46.2316C9.9424 49.7789 12.1629 53.0104 14.9127 55.6757C17.6625 58.3423 20.9401 60.4413 24.4802 61.8162C28.0204 63.1924 31.8175 63.8348 35.5774 63.7435C39.34 63.6479 43.057 62.8103 46.459 61.297C49.8651 59.7906 52.9534 57.6168 55.5236 54.9571C56.8086 53.6265 57.9569 52.1714 58.9656 50.6276C59.9729 49.0824 60.8186 47.4376 61.5136 45.7346C62.8913 42.323 63.6029 38.6512 63.6001 34.9711C63.6015 33.131 63.4288 31.2923 63.0765 29.4882C62.7269 27.6841 62.2101 25.9105 61.5178 24.2062C60.1429 20.7918 58.0979 17.6434 55.5305 14.9795C52.9617 12.3184 49.8707 10.1446 46.4645 8.63685C43.0612 7.12353 39.3414 6.28588 35.5788 6.19034C31.8175 6.09896 28.0204 6.74139 24.4802 8.12041C20.9401 9.49527 17.6625 11.5956 14.9141 14.2637C12.1629 16.9303 9.94378 20.1619 8.44591 23.7091C7.69975 25.4827 7.11939 27.3311 6.74217 29.2224C6.36355 31.1137 6.17149 33.041 6.16458 34.9711L6.16043 34.9697Z" fill="#0095DA"/>
</svg>
