<svg width="13" height="13" viewBox="0 0 13 13" fill="none" xmlns="http://www.w3.org/2000/svg">
<path d="M0.292893 11.2929C-0.0976311 11.6834 -0.0976311 12.3166 0.292893 12.7071C0.683418 13.0976 1.31658 13.0976 1.70711 12.7071L0.292893 11.2929ZM12.6066 1.3934C12.6066 0.841113 12.1589 0.393398 11.6066 0.393398L2.6066 0.393398C2.05432 0.393398 1.6066 0.841113 1.6066 1.3934C1.6066 1.94568 2.05432 2.3934 2.6066 2.3934L10.6066 2.3934L10.6066 10.3934C10.6066 10.9457 11.0543 11.3934 11.6066 11.3934C12.1589 11.3934 12.6066 10.9457 12.6066 10.3934L12.6066 1.3934ZM1.70711 12.7071L12.3137 2.1005L10.8995 0.686291L0.292893 11.2929L1.70711 12.7071Z" fill="#002B5C"/>
</svg>
