<svg width="16" height="18" viewBox="0 0 16 18" fill="none" xmlns="http://www.w3.org/2000/svg">
<path d="M8.00224 0C4.08341 0 0.896973 3.22293 0.896973 7.18664C0.896973 10.6031 4.55892 14.705 7.63604 17.5465L8.01317 17.8947L8.38483 17.5354C11.7899 14.224 15.113 10.697 15.113 7.18664C15.1075 3.22293 11.9211 0 8.00224 0ZM7.9913 16.3745C4.1162 12.7148 1.99009 9.46425 1.99009 7.18664C1.99009 3.83103 4.68462 1.10564 8.00224 1.10564C11.3198 1.10564 14.0144 3.83103 14.0144 7.18664C14.0144 10.1442 11.0958 13.3395 7.9913 16.3745Z" fill="url(#paint0_linear_29_69)"/>
<path d="M8.00232 4.42255C6.49382 4.42255 5.26953 5.66086 5.26953 7.18664C5.26953 8.71242 6.49382 9.95073 8.00232 9.95073C9.51083 9.95073 10.7351 8.71242 10.7351 7.18664C10.7351 5.66086 9.51083 4.42255 8.00232 4.42255ZM8.00232 8.8451C7.1005 8.8451 6.36265 8.09879 6.36265 7.18664C6.36265 6.27449 7.1005 5.52818 8.00232 5.52818C8.90415 5.52818 9.642 6.27449 9.642 7.18664C9.642 8.09879 8.90415 8.8451 8.00232 8.8451Z" fill="url(#paint1_linear_29_69)"/>
<defs>
<linearGradient id="paint0_linear_29_69" x1="0.896973" y1="8.94737" x2="15.113" y2="8.94737" gradientUnits="userSpaceOnUse">
<stop stop-color="#1FAA4A"/>
<stop offset="1" stop-color="#0095DA"/>
</linearGradient>
<linearGradient id="paint1_linear_29_69" x1="5.26953" y1="7.18664" x2="10.7351" y2="7.18664" gradientUnits="userSpaceOnUse">
<stop stop-color="#1FAA4A"/>
<stop offset="1" stop-color="#0095DA"/>
</linearGradient>
</defs>
</svg>
