<svg width="15" height="18" viewBox="0 0 15 18" fill="none" xmlns="http://www.w3.org/2000/svg">
<g clip-path="url(#clip0_57_132)">
<path d="M7.50002 8.41384C9.88848 8.41384 11.8269 6.52914 11.8269 4.20692C11.8269 1.8847 9.88848 0 7.50002 0C5.11156 0 3.1731 1.8847 3.1731 4.20692C3.1731 6.52914 5.11156 8.41384 7.50002 8.41384ZM7.50002 1.12184C9.2481 1.12184 10.6731 2.50732 10.6731 4.20692C10.6731 5.90651 9.2481 7.29199 7.50002 7.29199C5.75194 7.29199 4.32694 5.90651 4.32694 4.20692C4.32694 2.50732 5.75194 1.12184 7.50002 1.12184Z" fill="#D2D2D2"/>
<path d="M7.5 8.92432C3.36346 8.92432 0 12.1945 0 16.2163V17.4391C0 17.7476 0.259615 18 0.576923 18C0.894231 18 1.15385 17.7476 1.15385 17.4391V16.2163C1.15385 12.8115 3.99808 10.0462 7.5 10.0462C11.0019 10.0462 13.8462 12.8115 13.8462 16.2163V17.4391C13.8462 17.7476 14.1058 18 14.4231 18C14.7404 18 15 17.7476 15 17.4391V16.2163C15 12.1945 11.6365 8.92432 7.5 8.92432Z" fill="#D2D2D2"/>
</g>
<defs>
<clipPath id="clip0_57_132">
<rect width="15" height="18" fill="white"/>
</clipPath>
</defs>
</svg>
