<svg width="18" height="13" viewBox="0 0 18 13" fill="none" xmlns="http://www.w3.org/2000/svg">
<path d="M15.6338 0.631531H3.00224C1.83908 0.631531 0.896973 1.57364 0.896973 2.73679V10.6315C0.896973 11.7947 1.83908 12.7368 3.00224 12.7368H15.6338C16.797 12.7368 17.7391 11.7947 17.7391 10.6315V2.73679C17.7391 1.57364 16.797 0.631531 15.6338 0.631531ZM16.6864 10.6315C16.6864 11.2105 16.2128 11.6842 15.6338 11.6842H3.00224C2.42329 11.6842 1.9496 11.2105 1.9496 10.6315V2.73679C1.9496 2.15785 2.42329 1.68416 3.00224 1.68416H15.6338C16.2128 1.68416 16.6864 2.15785 16.6864 2.73679V10.6315Z" fill="url(#paint0_linear_29_71)"/>
<path d="M15.5127 3.45784C15.3284 3.23152 14.9969 3.19995 14.7706 3.38416L9.31266 7.84731L3.86003 3.38416C3.63371 3.19995 3.30213 3.23152 3.11792 3.45784C2.93371 3.68416 2.96529 4.01574 3.19161 4.19995L8.98108 8.93679C9.07582 9.01574 9.19687 9.05784 9.31266 9.05784C9.42845 9.05784 9.5495 9.01574 9.64424 8.93679L15.4337 4.19995C15.66 4.01574 15.6916 3.68416 15.5074 3.45784H15.5127Z" fill="url(#paint1_linear_29_71)"/>
<path d="M13.3758 7.62624C13.1705 7.42097 12.8389 7.42097 12.6337 7.62624C12.4284 7.8315 12.4284 8.16308 12.6337 8.36834L14.7389 10.4736C14.8442 10.5789 14.9758 10.6262 15.1126 10.6262C15.2495 10.6262 15.3811 10.5736 15.4863 10.4736C15.6916 10.2683 15.6916 9.93676 15.4863 9.7315L13.3811 7.62624H13.3758Z" fill="url(#paint2_linear_29_71)"/>
<path d="M5.26019 7.62624L3.15492 9.7315C2.94966 9.93676 2.94966 10.2683 3.15492 10.4736C3.26019 10.5789 3.39177 10.6262 3.52861 10.6262C3.66545 10.6262 3.79703 10.5736 3.90229 10.4736L6.00756 8.36834C6.21282 8.16308 6.21282 7.8315 6.00756 7.62624C5.80229 7.42097 5.47071 7.42097 5.26545 7.62624H5.26019Z" fill="url(#paint3_linear_29_71)"/>
<defs>
<linearGradient id="paint0_linear_29_71" x1="0.896973" y1="6.68416" x2="17.7391" y2="6.68416" gradientUnits="userSpaceOnUse">
<stop stop-color="#1FAA4A"/>
<stop offset="1" stop-color="#0095DA"/>
</linearGradient>
<linearGradient id="paint1_linear_29_71" x1="2.99829" y1="6.16118" x2="15.627" y2="6.16118" gradientUnits="userSpaceOnUse">
<stop stop-color="#1FAA4A"/>
<stop offset="1" stop-color="#0095DA"/>
</linearGradient>
<linearGradient id="paint2_linear_29_71" x1="12.4797" y1="9.04926" x2="15.6403" y2="9.04926" gradientUnits="userSpaceOnUse">
<stop stop-color="#1FAA4A"/>
<stop offset="1" stop-color="#0095DA"/>
</linearGradient>
<linearGradient id="paint3_linear_29_71" x1="3.00098" y1="9.04926" x2="6.1615" y2="9.04926" gradientUnits="userSpaceOnUse">
<stop stop-color="#1FAA4A"/>
<stop offset="1" stop-color="#0095DA"/>
</linearGradient>
</defs>
</svg>
