<svg width="17" height="18" viewBox="0 0 17 18" fill="none" xmlns="http://www.w3.org/2000/svg">
<path d="M16.7945 8.01409C15.3146 4.61254 12.6585 1.9675 9.31216 0.564915C9.03054 0.448953 8.71578 0.587003 8.59982 0.874147C8.48938 1.16129 8.62191 1.48709 8.89801 1.60857C11.9848 2.90072 14.4366 5.34145 15.8005 8.47794C15.8889 8.68778 16.0877 8.80926 16.2975 8.80926C16.3693 8.80926 16.4466 8.7927 16.5184 8.75956C16.7945 8.63256 16.916 8.30124 16.7945 8.01409Z" fill="url(#paint0_linear_29_70)"/>
<path d="M8.61641 4.60702C10.4884 5.39115 11.9738 6.86552 12.8021 8.76509C12.8904 8.96388 13.0837 9.08537 13.2825 9.08537C13.3543 9.08537 13.4261 9.0688 13.4979 9.03567C13.7629 8.91418 13.8844 8.59391 13.7629 8.31781C12.8242 6.16423 11.1344 4.48554 9.01399 3.60202C8.74342 3.49158 8.43971 3.62411 8.32927 3.90021C8.21883 4.17631 8.35135 4.49658 8.62193 4.60702H8.61641Z" fill="url(#paint1_linear_29_70)"/>
<path d="M13.9341 11.1672C13.6359 10.869 13.299 10.7254 12.9622 10.7254C12.6253 10.7254 12.2885 10.8745 11.9958 11.1672C11.543 11.6145 11.0902 12.0673 10.643 12.5256C10.5656 12.6029 10.4994 12.6416 10.4276 12.6416C10.3779 12.6416 10.3282 12.625 10.273 12.5919C9.98031 12.4317 9.66556 12.3047 9.38393 12.128C8.0697 11.2997 6.9653 10.234 5.9879 9.04123C5.50197 8.44485 5.07125 7.80982 4.77306 7.09196C4.71232 6.94839 4.72336 6.84899 4.83932 6.73303C5.29213 6.29679 5.73389 5.84399 6.18117 5.39671C6.80516 4.77272 6.80516 4.03829 6.18117 3.40879C5.82776 3.04985 5.47436 2.70197 5.11543 2.34304C4.75097 1.97859 4.38652 1.60861 4.01655 1.24416C3.71836 0.951494 3.38152 0.807922 3.04467 0.807922C2.70783 0.807922 2.37099 0.957016 2.0728 1.24968C1.61448 1.70249 1.17824 2.16081 0.708867 2.60257C0.278151 3.00568 0.0627932 3.50266 0.0130952 4.08799C-0.0586908 5.03778 0.173233 5.93234 0.499031 6.80482C1.17272 8.61051 2.19429 10.2174 3.43121 11.6918C5.10438 13.6797 7.10335 15.259 9.43915 16.391C10.4939 16.9046 11.5817 17.2966 12.7689 17.3574C12.8407 17.3574 12.9125 17.3629 12.9843 17.3629C13.7132 17.3629 14.3482 17.142 14.8618 16.5622C15.2483 16.126 15.6901 15.7284 16.0987 15.3142C16.7116 14.6958 16.7116 13.9503 16.1042 13.3373C15.3808 12.6084 14.6519 11.8851 13.923 11.1617L13.9341 11.1672ZM15.3256 14.5411C15.1876 14.6792 15.0495 14.8117 14.9115 14.9498C14.6243 15.2259 14.3316 15.513 14.0445 15.8333C13.7739 16.137 13.4592 16.2695 12.9898 16.2695C12.9401 16.2695 12.8904 16.2695 12.8352 16.2695C11.9517 16.2198 11.0516 15.9548 9.93061 15.4081C7.76599 14.3534 5.8609 12.868 4.2816 10.9905C3.01706 9.48851 2.1225 7.99757 1.53717 6.42932C1.1948 5.52371 1.0678 4.82794 1.1175 4.18739C1.14511 3.85607 1.25002 3.61862 1.4709 3.40879C1.75805 3.13821 2.03415 2.85658 2.31577 2.57496C2.49247 2.39826 2.66918 2.21603 2.8514 2.03933C2.9508 1.93993 3.02259 1.91784 3.04467 1.91784C3.06676 1.91784 3.14407 1.94545 3.24347 2.03933C3.48643 2.27677 3.72388 2.51974 3.96685 2.76271L4.3313 3.12716C4.51353 3.30939 4.69023 3.49162 4.87246 3.66832C5.04916 3.84502 5.22034 4.01621 5.39705 4.19291C5.60136 4.39722 5.59032 4.43588 5.39705 4.62363L5.2093 4.81137C4.8338 5.19239 4.45279 5.57341 4.0552 5.95995C3.62448 6.39067 3.51404 6.96495 3.75149 7.5282C4.06072 8.26815 4.50248 8.97496 5.13199 9.74804C6.28057 11.1617 7.47884 12.2495 8.7986 13.0778C9.01396 13.2103 9.23484 13.3208 9.42811 13.4147C9.53303 13.4643 9.63795 13.5196 9.7263 13.5637C9.9527 13.6908 10.1846 13.757 10.4276 13.757C10.6871 13.757 11.0737 13.6797 11.4381 13.3042C11.8744 12.8569 12.3161 12.4152 12.78 11.9568C12.8794 11.8574 12.9456 11.8354 12.9732 11.8354C13.0008 11.8354 13.0671 11.863 13.1665 11.9568C13.8954 12.6802 14.6188 13.4036 15.3422 14.127C15.5078 14.2982 15.5299 14.3479 15.3311 14.5467L15.3256 14.5411Z" fill="url(#paint2_linear_29_70)"/>
<defs>
<linearGradient id="paint0_linear_29_70" x1="8.56091" y1="4.66656" x2="16.8415" y2="4.66656" gradientUnits="userSpaceOnUse">
<stop stop-color="#1FAA4A"/>
<stop offset="1" stop-color="#0095DA"/>
</linearGradient>
<linearGradient id="paint1_linear_29_70" x1="8.29028" y1="6.32424" x2="13.8102" y2="6.32424" gradientUnits="userSpaceOnUse">
<stop stop-color="#1FAA4A"/>
<stop offset="1" stop-color="#0095DA"/>
</linearGradient>
<linearGradient id="paint2_linear_29_70" x1="0" y1="9.0854" x2="16.5591" y2="9.0854" gradientUnits="userSpaceOnUse">
<stop stop-color="#1FAA4A"/>
<stop offset="1" stop-color="#0095DA"/>
</linearGradient>
</defs>
</svg>
