<svg width="17" height="13" viewBox="0 0 17 13" fill="none" xmlns="http://www.w3.org/2000/svg">
<path d="M14.7368 0H2.10526C0.942105 0 0 0.942105 0 2.10526V10C0 11.1632 0.942105 12.1053 2.10526 12.1053H14.7368C15.9 12.1053 16.8421 11.1632 16.8421 10V2.10526C16.8421 0.942105 15.9 0 14.7368 0ZM15.7895 10C15.7895 10.5789 15.3158 11.0526 14.7368 11.0526H2.10526C1.52632 11.0526 1.05263 10.5789 1.05263 10V2.10526C1.05263 1.52632 1.52632 1.05263 2.10526 1.05263H14.7368C15.3158 1.05263 15.7895 1.52632 15.7895 2.10526V10Z" fill="white"/>
<path d="M14.6157 2.82631C14.4315 2.59999 14.0999 2.56842 13.8736 2.75263L8.41568 7.21578L2.96305 2.75263C2.73674 2.56842 2.40516 2.59999 2.22095 2.82631C2.03674 3.05263 2.06832 3.3842 2.29463 3.56842L8.08411 8.30526C8.17884 8.3842 8.2999 8.42631 8.41568 8.42631C8.53147 8.42631 8.65253 8.3842 8.74726 8.30526L14.5367 3.56842C14.7631 3.3842 14.7946 3.05263 14.6104 2.82631H14.6157Z" fill="white"/>
<path d="M12.4788 6.99471C12.2736 6.78944 11.942 6.78944 11.7367 6.99471C11.5314 7.19997 11.5314 7.53155 11.7367 7.73681L13.842 9.84208C13.9472 9.94734 14.0788 9.99471 14.2157 9.99471C14.3525 9.99471 14.4841 9.94208 14.5893 9.84208C14.7946 9.63681 14.7946 9.30523 14.5893 9.09997L12.4841 6.99471H12.4788Z" fill="white"/>
<path d="M4.36321 6.99471L2.25795 9.09997C2.05269 9.30523 2.05269 9.63681 2.25795 9.84208C2.36321 9.94734 2.49479 9.99471 2.63164 9.99471C2.76848 9.99471 2.90006 9.94208 3.00532 9.84208L5.11058 7.73681C5.31585 7.53155 5.31585 7.19997 5.11058 6.99471C4.90532 6.78944 4.57374 6.78944 4.36848 6.99471H4.36321Z" fill="white"/>
</svg>
