<svg width="20" height="20" viewBox="0 0 20 20" fill="none" xmlns="http://www.w3.org/2000/svg">
<path d="M9.94735 4.39471C9.65787 4.39471 9.42103 4.63156 9.42103 4.92103V9.89998L7.4684 11.8526C7.26314 12.0579 7.26314 12.3895 7.4684 12.5947C7.57366 12.7 7.70524 12.7473 7.84208 12.7473C7.97893 12.7473 8.11051 12.6947 8.21577 12.5947L10.321 10.4895C10.4316 10.3789 10.4789 10.2368 10.4684 10.0947C10.4684 10.0895 10.4684 10.0789 10.4684 10.0737V4.92103C10.4684 4.77366 10.4105 4.64208 10.3158 4.54735C10.221 4.45261 10.0895 4.39471 9.94208 4.39471H9.94735Z" fill="#002B5C"/>
<path d="M9.94737 1C5.01053 1 1 5.01053 1 9.94737C1 14.8842 5.01053 18.8947 9.94737 18.8947C14.8842 18.8947 18.8947 14.8842 18.8947 9.94737C18.8947 5.01053 14.8789 1 9.94737 1ZM9.94737 17.8421C5.59474 17.8421 2.05263 14.3 2.05263 9.94737C2.05263 5.59474 5.59474 2.05263 9.94737 2.05263C14.3 2.05263 17.8421 5.59474 17.8421 9.94737C17.8421 14.3 14.3 17.8421 9.94737 17.8421Z" fill="#002B5C" stroke="#002B5C"/>
</svg>
